<svg id="Layer_1" data-name="Layer 1" xmlns="http://www.w3.org/2000/svg" xmlns:xlink="http://www.w3.org/1999/xlink" viewBox="0 0 1368 770"><defs><pattern id="Sesames" data-name="Sesames" width="532.81" height="479.11" patternTransform="translate(-84.26 -488.31) scale(1.01 1.06)" patternUnits="userSpaceOnUse" viewBox="0 0 532.81 479.11"><rect width="532.81" height="479.11" fill="none"/><path d="M494.7,472.76c-6.05-1.72-9.58-1.94-16.5-1-.47,4.75,5,8.57,9.94,6.35,2.35-1.07,5.36-1.94,6.56-4.85" fill="none" stroke="#000" stroke-linecap="round" stroke-linejoin="round" stroke-width="2"/><path d="M508.2,428.76c3.73,2.71,8,3.65,12.5,4,1.68.13,3.17-.14,3.46-2,.24-1.64.14-3-1.91-4.09a13.52,13.52,0,0,0-14.55,1.6" fill="none" stroke="#000" stroke-linecap="round" stroke-linejoin="round" stroke-width="2"/><path d="M410.2,465.76a14.83,14.83,0,0,0-10.5-5.95c-2.66-.32-5.37,0-6,3.45s1.21,5,4.48,5.53c4,.62,8.52.36,11.27-1.82s3.81-1,5.73-.21" fill="none" stroke="#000" stroke-linecap="round" stroke-linejoin="round" stroke-width="2"/><path d="M437.2,483.26c-2.15-1.45-2.85-4-3.86-6.07s-2.29-3.71-4.18-4.3a5.49,5.49,0,0,0-5.51.81c-2.12,1.8-1.79,4.13-1.34,6,1.33,5.59,6.68,7.49,13.38,5,1-.36,1.68-1.28,2.51.05" fill="none" stroke="#000" stroke-linecap="round" stroke-linejoin="round" stroke-width="2"/><path d="M446.2,458.76a41,41,0,0,0-15.5-2.59c-2.47,0-3.18,1.4-4,3.09,5.58,6.65,11,6.33,17-1" fill="none" stroke="#000" stroke-linecap="round" stroke-linejoin="round" stroke-width="2"/><path d="M534.7,459.76c-1.89,4-4.48,8,0,12.56,4.37-5.08,2.15-9.83.48-14.56" fill="none" stroke="#000" stroke-linecap="round" stroke-linejoin="round" stroke-width="2"/><path d="M173.4,469.76c3.19-1.16,3.62-3.87,2.91-6.48a35.46,35.46,0,0,0-6.43-12c-.61-.81-1.19-1-2.53-.67-1.78.5-.95,1.58-.89,2.15.69,6.21-.54,13.18,6.44,17" fill="none" stroke="#000" stroke-linecap="round" stroke-linejoin="round" stroke-width="2"/><path d="M119.9,432.76c-.05,1.69-.32,3.33.47,5,2.35,5,3.26,10.11,0,15.38-4.09-3.45-4.64-9.16-2-15.89" fill="none" stroke="#000" stroke-linecap="round" stroke-linejoin="round" stroke-width="2"/><path d="M102.4,425.76c-5.57-2.45-11.65-1.78-15,1.47A4.55,4.55,0,0,0,86,431.74c.56,2.35,2.68,2.18,4.44,2,5.27-.58,9-3.93,12.51-7.46" fill="none" stroke="#000" stroke-linecap="round" stroke-linejoin="round" stroke-width="2"/><path d="M55.4,470.26c-2.14,3.1-4.17,6.3-4.93,10a6.44,6.44,0,0,0,1.42,6c2.36,2.45,4.86,1.88,6-1.51,1.59-4.77.67-9.42-1-14" fill="none" stroke="#000" stroke-linecap="round" stroke-linejoin="round" stroke-width="2"/><path d="M44.9,451.76c-.75-3-1.55-6-3.53-8.48a4.77,4.77,0,0,0-7.46-.51c-2.36,2.28-2.24,4.59,0,7,4,4.34,7,5.07,11,2.49" fill="none" stroke="#000" stroke-linecap="round" stroke-linejoin="round" stroke-width="2"/><path d="M136.9,479.26a27.34,27.34,0,0,0,9,1c4.69-.24,5.62-1.48,5-6.48-5.89-1.76-10.28.68-14,5" fill="none" stroke="#000" stroke-linecap="round" stroke-linejoin="round" stroke-width="2"/><path d="M10.9,400.26c3.48,2,5,4.89,6.33,8.89s-.49,4.2-2.92,5.28c-4.94-3.58-5.06-8.44-3.91-13.67" fill="none" stroke="#000" stroke-linecap="round" stroke-linejoin="round" stroke-width="2"/><path d="M15.4,462.76c2.63-.65,4.41-1.89,4.54-5,.22-5.2-5.47-11.53-11.4-12,1.21,5.95-1.44,13.14,6.36,16.53" fill="none" stroke="#000" stroke-linecap="round" stroke-linejoin="round" stroke-width="2"/><path d="M76.4,439.26c-4.49-5-11.42-5.63-17.85-1.26,4.05,3.06,8.6,4.13,13.34,4.79,2.54.35,3.38-1.47,4.51-3" fill="none" stroke="#000" stroke-linecap="round" stroke-linejoin="round" stroke-width="2"/><path d="M1.9,459.76c-1.89,4-4.49,8,0,12.56,4.38-5.08,2.16-9.83.49-14.56" fill="none" stroke="#000" stroke-linecap="round" stroke-linejoin="round" stroke-width="2"/><path d="M76.4,460.76c6.08,4,7.68,6.68,6.47,11.08-5.88-1.15-5.76-6.52-7.47-10.58" fill="none" stroke="#000" stroke-linecap="round" stroke-linejoin="round" stroke-width="2"/><path d="M371.2,352.06c2.21.31,4.3-.14,6.65,1.24a6.61,6.61,0,0,0,7.87-1.23c2.64-2.77,5.6-5.28,7.66-9.29a21.17,21.17,0,0,0-16.61.43c-3.45,1.58-4.11,5-1.57,8.35" fill="none" stroke="#000" stroke-linecap="round" stroke-linejoin="round" stroke-width="2"/><path d="M473.2,356.56c-3.85,1.39-7.27,3.31-9.54,7a7.55,7.55,0,0,0-.91,5c.19,1.76.14,3.95,2.46,4.46a4.83,4.83,0,0,0,5-1.47c3.51-4.21,5.53-8.87,4-14.48" fill="none" stroke="#000" stroke-linecap="round" stroke-linejoin="round" stroke-width="2"/><path d="M494.7,313.06c-6.05-1.73-9.58-1.94-16.5-1-.47,4.75,5,8.57,9.94,6.34,2.35-1.06,5.36-1.93,6.56-4.84" fill="none" stroke="#000" stroke-linecap="round" stroke-linejoin="round" stroke-width="2"/><path d="M508.2,269.06c3.73,2.7,8,3.65,12.5,4,1.68.13,3.17-.14,3.46-2,.24-1.64.14-3-1.91-4.09a13.52,13.52,0,0,0-14.55,1.6" fill="none" stroke="#000" stroke-linecap="round" stroke-linejoin="round" stroke-width="2"/><path d="M439.7,351.56a25.67,25.67,0,0,0,9,1c4.86-.38,5.63-1.47,5-6.47-5.91-1.83-10.33.52-14,5" fill="none" stroke="#000" stroke-linecap="round" stroke-linejoin="round" stroke-width="2"/><path d="M422.7,357.56c-1.12,3.24-2.67,6.48-1.92,10,.43,2,.76,4.9,3.91,4.45,2.64-.38,3-2.57,3.06-4.93.14-3.87-1.88-6.69-4.05-9.5" fill="none" stroke="#000" stroke-linecap="round" stroke-linejoin="round" stroke-width="2"/><path d="M410.2,306.06a14.83,14.83,0,0,0-10.5-5.95c-2.66-.32-5.37,0-6,3.45s1.21,5,4.48,5.52c4,.62,8.52.37,11.27-1.82s3.81-1,5.73-.2" fill="none" stroke="#000" stroke-linecap="round" stroke-linejoin="round" stroke-width="2"/><path d="M510.7,326.06c-3.84.43-7.18,1.94-7.9,6s1.49,7,4.91,9a56.2,56.2,0,0,0,7.52,3.95c3.32,1.3,5.94-1.25,5.49-4.94-.78-6.31-3.73-11.1-9.52-14" fill="none" stroke="#000" stroke-linecap="round" stroke-linejoin="round" stroke-width="2"/><path d="M500.2,393.06c-3.44-3.48-7-6.52-12.51-5.06a5.66,5.66,0,0,0-2.52,1c-1.93,1.61-4.77,2.87-2.9,6a6,6,0,0,0,6.93,3c3.77-.89,7.9-.91,10.5-4.5" fill="none" stroke="#000" stroke-linecap="round" stroke-linejoin="round" stroke-width="2"/><path d="M437.2,323.56c-2.15-1.45-2.85-4-3.86-6.07s-2.29-3.72-4.18-4.3a5.49,5.49,0,0,0-5.51.8c-2.12,1.81-1.79,4.14-1.34,6,1.33,5.59,6.68,7.49,13.38,5,1-.36,1.68-1.29,2.51.05" fill="none" stroke="#000" stroke-linecap="round" stroke-linejoin="round" stroke-width="2"/><path d="M359.7,340.56c4.08-3.81,5.13-8.68,3-14-6.78,2.09-7.65,5.84-3.46,15.08-.92.76-1.85,1.38-3,.42" fill="none" stroke="#000" stroke-linecap="round" stroke-linejoin="round" stroke-width="2"/><path d="M446.2,299.06a40.83,40.83,0,0,0-15.5-2.59c-2.47,0-3.18,1.39-4,3.09,5.58,6.65,11,6.33,17-1" fill="none" stroke="#000" stroke-linecap="round" stroke-linejoin="round" stroke-width="2"/><path d="M383.7,364.56c.49,4.19-1.17,7.49-3.93,10.55-1.4,1.54-2.69,2.76-4.52,1.38-1.64-1.24-2.05-2.74-.67-5a21.25,21.25,0,0,1,8.12-7.42" fill="none" stroke="#000" stroke-linecap="round" stroke-linejoin="round" stroke-width="2"/><path d="M534.7,300.06c-1.89,4-4.48,8,0,12.56,4.37-5.08,2.15-9.83.48-14.56" fill="none" stroke="#000" stroke-linecap="round" stroke-linejoin="round" stroke-width="2"/><path d="M104.8,431.91c2.21.32,4.3-.13,6.65,1.24a6.58,6.58,0,0,0,7.86-1.23c2.65-2.77,5.61-5.28,7.67-9.29a21.17,21.17,0,0,0-16.61.43c-3.45,1.58-4.11,5-1.57,8.35" fill="none" stroke="#000" stroke-linecap="round" stroke-linejoin="round" stroke-width="2"/><path d="M439.8,389.91c3.19-1.16,3.62-3.87,2.91-6.48a35.61,35.61,0,0,0-6.42-12c-.62-.81-1.2-1.05-2.53-.68-1.79.51-1,1.58-.9,2.16.69,6.21-.54,13.18,6.44,17" fill="none" stroke="#000" stroke-linecap="round" stroke-linejoin="round" stroke-width="2"/><path d="M206.8,436.41c-3.86,1.39-7.28,3.31-9.54,7a7.5,7.5,0,0,0-.91,5c.19,1.76.14,4,2.46,4.46a4.84,4.84,0,0,0,5-1.46c3.51-4.21,5.53-8.87,4-14.49" fill="none" stroke="#000" stroke-linecap="round" stroke-linejoin="round" stroke-width="2"/><path d="M267.8,456.41c3.31,4.37,9.31,5.53,14.44,2.4,1.29-.79,3.1-1.53,3.58-3.38-7.64-7.15-14.41-7-18,.48" fill="none" stroke="#000" stroke-linecap="round" stroke-linejoin="round" stroke-width="2"/><path d="M369.3,448.41c2.33-6-.87-14.13-6.5-16.5-2.65-1.12-5,.26-4.39,3,1.09,4.51,2.08,9.14,5.83,12.59,2,1.84,5.16-.38,6.56,2.44" fill="none" stroke="#000" stroke-linecap="round" stroke-linejoin="round" stroke-width="2"/><path d="M228.3,392.91c-6.06-1.72-9.59-1.94-16.5-1-.47,4.75,5,8.57,9.93,6.35,2.36-1.07,5.36-1.94,6.57-4.85" fill="none" stroke="#000" stroke-linecap="round" stroke-linejoin="round" stroke-width="2"/><path d="M386.3,352.91c-.05,1.68-.32,3.33.47,5,2.36,5,3.26,10.11,0,15.38-4.09-3.46-4.64-9.16-2-15.89" fill="none" stroke="#000" stroke-linecap="round" stroke-linejoin="round" stroke-width="2"/><path d="M368.8,345.91c-5.57-2.45-11.65-1.78-15,1.47a4.53,4.53,0,0,0-1.41,4.51c.55,2.35,2.68,2.18,4.44,2,5.26-.58,9-3.93,12.5-7.46" fill="none" stroke="#000" stroke-linecap="round" stroke-linejoin="round" stroke-width="2"/><path d="M321.8,390.41c-2.14,3.09-4.17,6.3-4.92,10a6.42,6.42,0,0,0,1.42,6c2.36,2.45,4.86,1.88,6-1.51,1.59-4.77.68-9.42-1-14" fill="none" stroke="#000" stroke-linecap="round" stroke-linejoin="round" stroke-width="2"/><path d="M241.8,348.91c3.73,2.7,8,3.65,12.5,4,1.67.13,3.17-.14,3.45-2,.25-1.64.15-3-1.9-4.09a13.52,13.52,0,0,0-14.55,1.6" fill="none" stroke="#000" stroke-linecap="round" stroke-linejoin="round" stroke-width="2"/><path d="M311.3,371.91c-.74-3-1.55-6-3.53-8.48a4.77,4.77,0,0,0-7.46-.51c-2.36,2.28-2.24,4.58,0,7,4,4.34,7,5.07,11,2.49" fill="none" stroke="#000" stroke-linecap="round" stroke-linejoin="round" stroke-width="2"/><path d="M173.3,431.41a25.39,25.39,0,0,0,9,1c4.85-.38,5.62-1.47,5-6.47-5.91-1.83-10.33.53-14,5" fill="none" stroke="#000" stroke-linecap="round" stroke-linejoin="round" stroke-width="2"/><path d="M403.3,399.41a27.37,27.37,0,0,0,9,1c4.69-.24,5.62-1.49,5-6.48-5.89-1.76-10.28.68-14,5" fill="none" stroke="#000" stroke-linecap="round" stroke-linejoin="round" stroke-width="2"/><path d="M331.3,439.91c2.52,3.8,4.34,7.69,3.08,12.52-.43,1.69-.11,3.42-2.58,3.49s-3.14-1.7-3.46-3.52c-.61-3.54.55-6.81,2-10" fill="none" stroke="#000" stroke-linecap="round" stroke-linejoin="round" stroke-width="2"/><path d="M156.3,437.41c-1.12,3.24-2.67,6.48-1.92,10,.43,2,.76,4.9,3.91,4.45,2.63-.38,3-2.57,3.06-4.93.14-3.87-1.88-6.69-4-9.5" fill="none" stroke="#000" stroke-linecap="round" stroke-linejoin="round" stroke-width="2"/><path d="M277.3,320.41c3.48,2,5.06,4.89,6.33,8.89s-.49,4.19-2.92,5.28c-4.94-3.58-5-8.44-3.91-13.67" fill="none" stroke="#000" stroke-linecap="round" stroke-linejoin="round" stroke-width="2"/><path d="M143.8,385.91a14.85,14.85,0,0,0-10.51-6c-2.65-.32-5.36,0-6,3.45s1.21,5,4.48,5.52c4,.63,8.52.37,11.27-1.81s3.81-1,5.73-.21" fill="none" stroke="#000" stroke-linecap="round" stroke-linejoin="round" stroke-width="2"/><path d="M244.3,405.91c-3.84.43-7.18,1.94-7.9,6s1.49,7,4.91,9a55,55,0,0,0,7.52,3.95c3.32,1.3,5.94-1.24,5.48-4.93-.77-6.32-3.72-11.11-9.51-14" fill="none" stroke="#000" stroke-linecap="round" stroke-linejoin="round" stroke-width="2"/><path d="M233.8,472.91c-3.44-3.48-7-6.52-12.51-5.06a5.77,5.77,0,0,0-2.53,1c-1.93,1.62-4.77,2.87-2.89,6a6,6,0,0,0,6.93,3c3.76-.89,7.9-.91,10.5-4.5" fill="none" stroke="#000" stroke-linecap="round" stroke-linejoin="round" stroke-width="2"/><path d="M170.8,403.41c-2.16-1.45-2.85-4-3.86-6.07s-2.29-3.72-4.18-4.3a5.48,5.48,0,0,0-5.51.8c-2.12,1.81-1.79,4.14-1.34,6,1.33,5.59,6.68,7.49,13.37,5,1-.36,1.69-1.28,2.52.05" fill="none" stroke="#000" stroke-linecap="round" stroke-linejoin="round" stroke-width="2"/><path d="M281.8,382.91c2.63-.65,4.42-1.89,4.55-5,.21-5.2-5.48-11.54-11.41-12,1.21,5.94-1.44,13.13,6.36,16.53" fill="none" stroke="#000" stroke-linecap="round" stroke-linejoin="round" stroke-width="2"/><path d="M93.3,420.41c4.08-3.81,5.12-8.67,3-14-6.78,2.1-7.65,5.84-3.46,15.08-.93.77-1.85,1.39-3,.42" fill="none" stroke="#000" stroke-linecap="round" stroke-linejoin="round" stroke-width="2"/><path d="M342.8,359.41c-4.49-5-11.42-5.64-17.85-1.27,4.06,3.07,8.6,4.14,13.35,4.8,2.53.35,3.37-1.48,4.5-3" fill="none" stroke="#000" stroke-linecap="round" stroke-linejoin="round" stroke-width="2"/><path d="M179.8,378.91a40.89,40.89,0,0,0-15.5-2.59c-2.47,0-3.19,1.39-4,3.09,5.59,6.65,11,6.33,17-1" fill="none" stroke="#000" stroke-linecap="round" stroke-linejoin="round" stroke-width="2"/><path d="M117.3,444.41c.49,4.19-1.17,7.49-3.94,10.55-1.39,1.54-2.69,2.76-4.51,1.38-1.65-1.24-2-2.74-.67-5a21.18,21.18,0,0,1,8.12-7.42" fill="none" stroke="#000" stroke-linecap="round" stroke-linejoin="round" stroke-width="2"/><path d="M268.3,379.91c-1.89,4-4.48,8,0,12.56,4.37-5.08,2.15-9.83.48-14.56" fill="none" stroke="#000" stroke-linecap="round" stroke-linejoin="round" stroke-width="2"/><path d="M342.8,380.91c6.09,4,7.68,6.68,6.48,11.08-5.88-1.15-5.77-6.52-7.48-10.58" fill="none" stroke="#000" stroke-linecap="round" stroke-linejoin="round" stroke-width="2"/><path d="M371.8,405.41c-3.51,5.5-.26,16.14,5.5,18a4.75,4.75,0,0,0,6-4.5c.12-6.46-4.36-12-11-13.5" fill="none" stroke="#000" stroke-linecap="round" stroke-linejoin="round" stroke-width="2"/><path d="M426.8,425.91c-2.56.77-5,1.85-4.95,5s2,5.4,5,6.45c2.22.79,4.41,2.36,7.49,1,0-5.53-1.82-9.87-7-12.46" fill="none" stroke="#000" stroke-linecap="round" stroke-linejoin="round" stroke-width="2"/><path d="M302.8,423.41c-1.54.21-1.75,1.36-1.47,2.49,1.55,6.16,3.06,12.18,9.89,15.18,2.17,1,3.69.76,5-.27s.12-2.49-.28-3.94c-1.87-6.84-6.65-10.65-12.64-13.46" fill="none" stroke="#000" stroke-linecap="round" stroke-linejoin="round" stroke-width="2"/><path d="M173.4,310.06c3.19-1.16,3.62-3.88,2.91-6.48a35.46,35.46,0,0,0-6.43-12c-.61-.81-1.19-1.06-2.53-.68-1.78.51-.95,1.58-.89,2.16.69,6.2-.54,13.18,6.44,17" fill="none" stroke="#000" stroke-linecap="round" stroke-linejoin="round" stroke-width="2"/><path d="M1.4,376.56c3.3,4.37,9.31,5.53,14.44,2.4,1.29-.79,3.1-1.53,3.58-3.38-7.64-7.15-14.41-7-18,.48" fill="none" stroke="#000" stroke-linecap="round" stroke-linejoin="round" stroke-width="2"/><path d="M102.9,368.56c2.33-6-.88-14.13-6.5-16.5-2.66-1.12-5,.26-4.39,3,1.08,4.51,2.08,9.13,5.83,12.59,2,1.84,5.15-.38,6.56,2.44" fill="none" stroke="#000" stroke-linecap="round" stroke-linejoin="round" stroke-width="2"/><path d="M119.9,273.06c-.05,1.68-.32,3.33.47,5,2.35,5,3.26,10.1,0,15.38-4.09-3.46-4.64-9.17-2-15.89" fill="none" stroke="#000" stroke-linecap="round" stroke-linejoin="round" stroke-width="2"/><path d="M102.4,266.06c-5.57-2.46-11.65-1.78-15,1.47A4.54,4.54,0,0,0,86,272c.56,2.34,2.68,2.18,4.44,2,5.27-.59,9-3.93,12.51-7.46" fill="none" stroke="#000" stroke-linecap="round" stroke-linejoin="round" stroke-width="2"/><path d="M55.4,310.56c-2.14,3.09-4.17,6.3-4.93,10a6.45,6.45,0,0,0,1.42,6c2.36,2.45,4.86,1.88,6-1.51,1.59-4.78.67-9.42-1-14" fill="none" stroke="#000" stroke-linecap="round" stroke-linejoin="round" stroke-width="2"/><path d="M44.9,292.06c-.75-3-1.55-6-3.53-8.48a4.77,4.77,0,0,0-7.46-.51c-2.36,2.28-2.24,4.58,0,7,4,4.34,7,5.07,11,2.49" fill="none" stroke="#000" stroke-linecap="round" stroke-linejoin="round" stroke-width="2"/><path d="M136.9,319.56a27.34,27.34,0,0,0,9,1c4.69-.24,5.62-1.49,5-6.48-5.89-1.76-10.28.68-14,5" fill="none" stroke="#000" stroke-linecap="round" stroke-linejoin="round" stroke-width="2"/><path d="M64.9,360.06c2.51,3.8,4.34,7.69,3.08,12.52-.44,1.68-.11,3.42-2.58,3.49s-3.15-1.7-3.46-3.52c-.61-3.54.55-6.81,2-10" fill="none" stroke="#000" stroke-linecap="round" stroke-linejoin="round" stroke-width="2"/><path d="M10.9,240.56c3.48,2,5,4.88,6.33,8.89s-.49,4.19-2.92,5.27c-4.94-3.57-5.06-8.43-3.91-13.66" fill="none" stroke="#000" stroke-linecap="round" stroke-linejoin="round" stroke-width="2"/><path d="M15.4,303.06c2.63-.65,4.41-1.89,4.54-5,.22-5.2-5.47-11.54-11.4-12,1.21,6-1.44,13.14,6.36,16.54" fill="none" stroke="#000" stroke-linecap="round" stroke-linejoin="round" stroke-width="2"/><path d="M76.4,279.56c-4.49-5-11.42-5.64-17.85-1.27,4.05,3.07,8.6,4.13,13.34,4.79,2.54.36,3.38-1.47,4.51-3" fill="none" stroke="#000" stroke-linecap="round" stroke-linejoin="round" stroke-width="2"/><path d="M1.9,300.06c-1.89,4-4.49,8,0,12.56,4.38-5.08,2.16-9.83.49-14.56" fill="none" stroke="#000" stroke-linecap="round" stroke-linejoin="round" stroke-width="2"/><path d="M76.4,301.06c6.08,4,7.68,6.68,6.47,11.08C77,311,77.11,305.62,75.4,301.56" fill="none" stroke="#000" stroke-linecap="round" stroke-linejoin="round" stroke-width="2"/><path d="M105.4,325.56c-3.51,5.5-.26,16.14,5.5,18a4.76,4.76,0,0,0,6-4.5c.12-6.47-4.36-12-11-13.5" fill="none" stroke="#000" stroke-linecap="round" stroke-linejoin="round" stroke-width="2"/><path d="M160.4,346.06c-2.56.77-5,1.85-5,5s2,5.41,5,6.46c2.22.79,4.42,2.36,7.5,1,0-5.53-1.83-9.87-7-12.46" fill="none" stroke="#000" stroke-linecap="round" stroke-linejoin="round" stroke-width="2"/><path d="M36.4,343.56c-1.54.2-1.76,1.36-1.47,2.49,1.55,6.16,3,12.18,9.89,15.18,2.17,1,3.69.75,5-.28s.12-2.48-.28-3.93c-1.87-6.84-6.65-10.65-12.64-13.46" fill="none" stroke="#000" stroke-linecap="round" stroke-linejoin="round" stroke-width="2"/><path d="M371.2,192.35c2.21.32,4.3-.13,6.65,1.24a6.6,6.6,0,0,0,7.87-1.23c2.64-2.76,5.6-5.27,7.66-9.28a21.13,21.13,0,0,0-16.61.42c-3.45,1.59-4.11,5-1.57,8.35" fill="none" stroke="#000" stroke-linecap="round" stroke-linejoin="round" stroke-width="2"/><path d="M473.2,196.85c-3.85,1.4-7.27,3.32-9.54,7a7.54,7.54,0,0,0-.91,5c.19,1.76.14,4,2.46,4.46a4.83,4.83,0,0,0,5-1.47c3.51-4.21,5.53-8.87,4-14.49" fill="none" stroke="#000" stroke-linecap="round" stroke-linejoin="round" stroke-width="2"/><path d="M494.7,153.35c-6.05-1.72-9.58-1.93-16.5-1-.47,4.76,5,8.57,9.94,6.35,2.35-1.06,5.36-1.94,6.56-4.85" fill="none" stroke="#000" stroke-linecap="round" stroke-linejoin="round" stroke-width="2"/><path d="M508.2,109.35c3.73,2.71,8,3.66,12.5,4,1.68.14,3.17-.13,3.46-2,.24-1.63.14-3-1.91-4.08a13.52,13.52,0,0,0-14.55,1.59" fill="none" stroke="#000" stroke-linecap="round" stroke-linejoin="round" stroke-width="2"/><path d="M439.7,191.85a25.21,25.21,0,0,0,9,1c4.86-.38,5.63-1.46,5-6.47-5.91-1.83-10.33.53-14,5" fill="none" stroke="#000" stroke-linecap="round" stroke-linejoin="round" stroke-width="2"/><path d="M422.7,197.85c-1.12,3.24-2.67,6.48-1.92,10,.43,2,.76,4.89,3.91,4.44,2.64-.37,3-2.56,3.06-4.93.14-3.86-1.88-6.68-4.05-9.5" fill="none" stroke="#000" stroke-linecap="round" stroke-linejoin="round" stroke-width="2"/><path d="M410.2,146.35a14.78,14.78,0,0,0-10.5-5.94c-2.66-.33-5.37,0-6,3.45s1.21,5,4.48,5.52c4,.62,8.52.36,11.27-1.82s3.81-1,5.73-.21" fill="none" stroke="#000" stroke-linecap="round" stroke-linejoin="round" stroke-width="2"/><path d="M510.7,166.35c-3.84.44-7.18,1.94-7.9,6s1.49,7,4.91,9a57.39,57.39,0,0,0,7.52,3.95c3.32,1.3,5.94-1.25,5.49-4.94-.78-6.31-3.73-11.11-9.52-14" fill="none" stroke="#000" stroke-linecap="round" stroke-linejoin="round" stroke-width="2"/><path d="M500.2,233.35c-3.44-3.47-7-6.51-12.51-5a5.55,5.55,0,0,0-2.52,1c-1.93,1.61-4.77,2.86-2.9,6a6,6,0,0,0,6.93,3c3.77-.89,7.9-.9,10.5-4.5" fill="none" stroke="#000" stroke-linecap="round" stroke-linejoin="round" stroke-width="2"/><path d="M437.2,163.85c-2.15-1.45-2.85-4-3.86-6.06s-2.29-3.72-4.18-4.31a5.51,5.51,0,0,0-5.51.81c-2.12,1.8-1.79,4.14-1.34,6,1.33,5.59,6.68,7.48,13.38,5,1-.36,1.68-1.28,2.51,0" fill="none" stroke="#000" stroke-linecap="round" stroke-linejoin="round" stroke-width="2"/><path d="M359.7,180.85c4.08-3.8,5.13-8.67,3-14-6.78,2.1-7.65,5.84-3.46,15.08-.92.77-1.85,1.39-3,.42" fill="none" stroke="#000" stroke-linecap="round" stroke-linejoin="round" stroke-width="2"/><path d="M446.2,139.35a41,41,0,0,0-15.5-2.58c-2.47,0-3.18,1.39-4,3.08,5.58,6.65,11,6.34,17-1" fill="none" stroke="#000" stroke-linecap="round" stroke-linejoin="round" stroke-width="2"/><path d="M383.7,204.85c.49,4.2-1.17,7.5-3.93,10.56-1.4,1.54-2.69,2.75-4.52,1.38-1.64-1.24-2.05-2.74-.67-5a21.2,21.2,0,0,1,8.12-7.43" fill="none" stroke="#000" stroke-linecap="round" stroke-linejoin="round" stroke-width="2"/><path d="M534.7,140.35c-1.89,4-4.48,8,0,12.56,4.37-5.07,2.15-9.83.48-14.56" fill="none" stroke="#000" stroke-linecap="round" stroke-linejoin="round" stroke-width="2"/><path d="M104.8,272.2c2.21.32,4.3-.13,6.65,1.25a6.61,6.61,0,0,0,7.86-1.23c2.65-2.77,5.61-5.28,7.67-9.29a21.17,21.17,0,0,0-16.61.43c-3.45,1.58-4.11,5-1.57,8.34" fill="none" stroke="#000" stroke-linecap="round" stroke-linejoin="round" stroke-width="2"/><path d="M439.8,230.2c3.19-1.15,3.62-3.87,2.91-6.47a35.61,35.61,0,0,0-6.42-12c-.62-.81-1.2-1.06-2.53-.68-1.79.51-1,1.58-.9,2.16.69,6.2-.54,13.18,6.44,17" fill="none" stroke="#000" stroke-linecap="round" stroke-linejoin="round" stroke-width="2"/><path d="M206.8,276.7c-3.86,1.4-7.28,3.32-9.54,7a7.49,7.49,0,0,0-.91,5c.19,1.76.14,3.95,2.46,4.46a4.83,4.83,0,0,0,5-1.47c3.51-4.21,5.53-8.87,4-14.49" fill="none" stroke="#000" stroke-linecap="round" stroke-linejoin="round" stroke-width="2"/><path d="M267.8,296.7c3.31,4.38,9.31,5.54,14.44,2.4,1.29-.78,3.1-1.52,3.58-3.38-7.64-7.14-14.41-7-18,.48" fill="none" stroke="#000" stroke-linecap="round" stroke-linejoin="round" stroke-width="2"/><path d="M369.3,288.7c2.33-6-.87-14.12-6.5-16.5-2.65-1.12-5,.26-4.39,3,1.09,4.51,2.08,9.13,5.83,12.59,2,1.84,5.16-.38,6.56,2.43" fill="none" stroke="#000" stroke-linecap="round" stroke-linejoin="round" stroke-width="2"/><path d="M228.3,233.2c-6.06-1.72-9.59-1.93-16.5-1-.47,4.76,5,8.57,9.93,6.35,2.36-1.06,5.36-1.93,6.57-4.85" fill="none" stroke="#000" stroke-linecap="round" stroke-linejoin="round" stroke-width="2"/><path d="M386.3,193.2c-.05,1.69-.32,3.34.47,5,2.36,5,3.26,10.1,0,15.37-4.09-3.45-4.64-9.16-2-15.89" fill="none" stroke="#000" stroke-linecap="round" stroke-linejoin="round" stroke-width="2"/><path d="M368.8,186.2c-5.57-2.45-11.65-1.77-15,1.47a4.55,4.55,0,0,0-1.41,4.52c.55,2.34,2.68,2.17,4.44,2,5.26-.59,9-3.93,12.5-7.47" fill="none" stroke="#000" stroke-linecap="round" stroke-linejoin="round" stroke-width="2"/><path d="M321.8,230.7c-2.14,3.1-4.17,6.31-4.92,10a6.42,6.42,0,0,0,1.42,6c2.36,2.45,4.86,1.88,6-1.51,1.59-4.78.68-9.42-1-14" fill="none" stroke="#000" stroke-linecap="round" stroke-linejoin="round" stroke-width="2"/><path d="M241.8,189.2c3.73,2.71,8,3.66,12.5,4,1.67.13,3.17-.14,3.45-2,.25-1.64.15-3-1.9-4.09a13.54,13.54,0,0,0-14.55,1.59" fill="none" stroke="#000" stroke-linecap="round" stroke-linejoin="round" stroke-width="2"/><path d="M311.3,212.2c-.74-3-1.55-6-3.53-8.48a4.77,4.77,0,0,0-7.46-.5c-2.36,2.27-2.24,4.58,0,7,4,4.34,7,5.07,11,2.48" fill="none" stroke="#000" stroke-linecap="round" stroke-linejoin="round" stroke-width="2"/><path d="M173.3,271.7a25.16,25.16,0,0,0,9,1c4.85-.38,5.62-1.46,5-6.47-5.91-1.83-10.33.53-14,5" fill="none" stroke="#000" stroke-linecap="round" stroke-linejoin="round" stroke-width="2"/><path d="M403.3,239.7a27.12,27.12,0,0,0,9,1c4.69-.24,5.62-1.49,5-6.49-5.89-1.75-10.28.69-14,5" fill="none" stroke="#000" stroke-linecap="round" stroke-linejoin="round" stroke-width="2"/><path d="M331.3,280.2c2.52,3.81,4.34,7.7,3.08,12.53-.43,1.68-.11,3.42-2.58,3.49s-3.14-1.7-3.46-3.52c-.61-3.54.55-6.81,2-10" fill="none" stroke="#000" stroke-linecap="round" stroke-linejoin="round" stroke-width="2"/><path d="M156.3,277.7c-1.12,3.25-2.67,6.48-1.92,10,.43,2,.76,4.89,3.91,4.44,2.63-.37,3-2.56,3.06-4.92.14-3.87-1.88-6.69-4-9.51" fill="none" stroke="#000" stroke-linecap="round" stroke-linejoin="round" stroke-width="2"/><path d="M277.3,160.7c3.48,2,5.06,4.89,6.33,8.9s-.49,4.19-2.92,5.27c-4.94-3.57-5-8.43-3.91-13.67" fill="none" stroke="#000" stroke-linecap="round" stroke-linejoin="round" stroke-width="2"/><path d="M143.8,226.2a14.84,14.84,0,0,0-10.51-5.94c-2.65-.32-5.36,0-6,3.45s1.21,5,4.48,5.52c4,.62,8.52.37,11.27-1.82s3.81-1,5.73-.21" fill="none" stroke="#000" stroke-linecap="round" stroke-linejoin="round" stroke-width="2"/><path d="M244.3,246.2c-3.84.44-7.18,2-7.9,6s1.49,7,4.91,9a56.15,56.15,0,0,0,7.52,3.95c3.32,1.3,5.94-1.25,5.48-4.94-.77-6.31-3.72-11.11-9.51-14" fill="none" stroke="#000" stroke-linecap="round" stroke-linejoin="round" stroke-width="2"/><path d="M233.8,313.2c-3.44-3.47-7-6.51-12.51-5.05a5.54,5.54,0,0,0-2.53,1c-1.93,1.61-4.77,2.87-2.89,6a6,6,0,0,0,6.93,3c3.76-.89,7.9-.91,10.5-4.51" fill="none" stroke="#000" stroke-linecap="round" stroke-linejoin="round" stroke-width="2"/><path d="M170.8,243.7c-2.16-1.45-2.85-4-3.86-6.06s-2.29-3.72-4.18-4.3a5.48,5.48,0,0,0-5.51.8c-2.12,1.8-1.79,4.14-1.34,6,1.33,5.59,6.68,7.49,13.37,5,1-.36,1.69-1.29,2.52,0" fill="none" stroke="#000" stroke-linecap="round" stroke-linejoin="round" stroke-width="2"/><path d="M281.8,223.2c2.63-.65,4.42-1.88,4.55-5,.21-5.2-5.48-11.54-11.41-12,1.21,6-1.44,13.14,6.36,16.53" fill="none" stroke="#000" stroke-linecap="round" stroke-linejoin="round" stroke-width="2"/><path d="M93.3,260.7c4.08-3.8,5.12-8.67,3-14-6.78,2.1-7.65,5.85-3.46,15.08-.93.77-1.85,1.39-3,.42" fill="none" stroke="#000" stroke-linecap="round" stroke-linejoin="round" stroke-width="2"/><path d="M342.8,199.7c-4.49-5-11.42-5.63-17.85-1.26,4.06,3.06,8.6,4.13,13.35,4.79,2.53.35,3.37-1.47,4.5-3" fill="none" stroke="#000" stroke-linecap="round" stroke-linejoin="round" stroke-width="2"/><path d="M179.8,219.2a41.08,41.08,0,0,0-15.5-2.58c-2.47,0-3.19,1.39-4,3.08,5.59,6.66,11,6.34,17-1" fill="none" stroke="#000" stroke-linecap="round" stroke-linejoin="round" stroke-width="2"/><path d="M117.3,284.7c.49,4.2-1.17,7.5-3.94,10.56-1.39,1.54-2.69,2.75-4.51,1.38-1.65-1.24-2-2.74-.67-5a21.2,21.2,0,0,1,8.12-7.43" fill="none" stroke="#000" stroke-linecap="round" stroke-linejoin="round" stroke-width="2"/><path d="M268.3,220.2c-1.89,4-4.48,8,0,12.56,4.37-5.07,2.15-9.82.48-14.56" fill="none" stroke="#000" stroke-linecap="round" stroke-linejoin="round" stroke-width="2"/><path d="M342.8,221.2c6.09,4,7.68,6.69,6.48,11.09-5.88-1.15-5.77-6.52-7.48-10.59" fill="none" stroke="#000" stroke-linecap="round" stroke-linejoin="round" stroke-width="2"/><path d="M371.8,245.7c-3.51,5.51-.26,16.15,5.5,18a4.75,4.75,0,0,0,6-4.5c.12-6.46-4.36-12-11-13.5" fill="none" stroke="#000" stroke-linecap="round" stroke-linejoin="round" stroke-width="2"/><path d="M426.8,266.2c-2.56.77-5,1.86-4.95,5s2,5.41,5,6.46c2.22.79,4.41,2.36,7.49,1,0-5.53-1.82-9.87-7-12.47" fill="none" stroke="#000" stroke-linecap="round" stroke-linejoin="round" stroke-width="2"/><path d="M302.8,263.7c-1.54.21-1.75,1.37-1.47,2.5,1.55,6.16,3.06,12.18,9.89,15.18,2.17.95,3.69.75,5-.28s.12-2.49-.28-3.94c-1.87-6.83-6.65-10.64-12.64-13.46" fill="none" stroke="#000" stroke-linecap="round" stroke-linejoin="round" stroke-width="2"/><path d="M173.4,150.35c3.19-1.16,3.62-3.87,2.91-6.47a35.5,35.5,0,0,0-6.43-12c-.61-.81-1.19-1.05-2.53-.67-1.78.5-.95,1.58-.89,2.15.69,6.21-.54,13.19,6.44,17" fill="none" stroke="#000" stroke-linecap="round" stroke-linejoin="round" stroke-width="2"/><path d="M1.4,216.85c3.3,4.37,9.31,5.54,14.44,2.4,1.29-.78,3.1-1.52,3.58-3.38-7.64-7.14-14.41-7-18,.48" fill="none" stroke="#000" stroke-linecap="round" stroke-linejoin="round" stroke-width="2"/><path d="M102.9,208.85c2.33-6-.88-14.13-6.5-16.5-2.66-1.12-5,.26-4.39,3,1.08,4.5,2.08,9.13,5.83,12.59,2,1.83,5.15-.39,6.56,2.43" fill="none" stroke="#000" stroke-linecap="round" stroke-linejoin="round" stroke-width="2"/><path d="M119.9,113.35c-.05,1.69-.32,3.34.47,5,2.35,5,3.26,10.1,0,15.37-4.09-3.45-4.64-9.16-2-15.89" fill="none" stroke="#000" stroke-linecap="round" stroke-linejoin="round" stroke-width="2"/><path d="M102.4,106.35c-5.57-2.45-11.65-1.78-15,1.47A4.56,4.56,0,0,0,86,112.34c.56,2.34,2.68,2.17,4.44,2,5.27-.59,9-3.93,12.51-7.47" fill="none" stroke="#000" stroke-linecap="round" stroke-linejoin="round" stroke-width="2"/><path d="M55.4,150.85c-2.14,3.1-4.17,6.31-4.93,10a6.45,6.45,0,0,0,1.42,6c2.36,2.45,4.86,1.88,6-1.51,1.59-4.78.67-9.43-1-14" fill="none" stroke="#000" stroke-linecap="round" stroke-linejoin="round" stroke-width="2"/><path d="M44.9,132.35c-.75-3-1.55-6-3.53-8.48a4.78,4.78,0,0,0-7.46-.51c-2.36,2.28-2.24,4.59,0,7,4,4.34,7,5.06,11,2.48" fill="none" stroke="#000" stroke-linecap="round" stroke-linejoin="round" stroke-width="2"/><path d="M136.9,159.85a27.09,27.09,0,0,0,9,1c4.69-.25,5.62-1.49,5-6.49-5.89-1.75-10.28.68-14,5" fill="none" stroke="#000" stroke-linecap="round" stroke-linejoin="round" stroke-width="2"/><path d="M64.9,200.35c2.51,3.81,4.34,7.7,3.08,12.52-.44,1.69-.11,3.42-2.58,3.5s-3.15-1.7-3.46-3.53c-.61-3.53.55-6.8,2-10" fill="none" stroke="#000" stroke-linecap="round" stroke-linejoin="round" stroke-width="2"/><path d="M10.9,80.85c3.48,2,5,4.89,6.33,8.9s-.49,4.19-2.92,5.27c-4.94-3.57-5.06-8.43-3.91-13.67" fill="none" stroke="#000" stroke-linecap="round" stroke-linejoin="round" stroke-width="2"/><path d="M15.4,143.35c2.63-.65,4.41-1.88,4.54-5,.22-5.19-5.47-11.53-11.4-12,1.21,6-1.44,13.14,6.36,16.53" fill="none" stroke="#000" stroke-linecap="round" stroke-linejoin="round" stroke-width="2"/><path d="M76.4,119.85c-4.49-5-11.42-5.63-17.85-1.26,4.05,3.06,8.6,4.13,13.34,4.79,2.54.35,3.38-1.47,4.51-3" fill="none" stroke="#000" stroke-linecap="round" stroke-linejoin="round" stroke-width="2"/><path d="M1.9,140.35c-1.89,4-4.49,8,0,12.56,4.38-5.07,2.16-9.83.49-14.56" fill="none" stroke="#000" stroke-linecap="round" stroke-linejoin="round" stroke-width="2"/><path d="M76.4,141.35c6.08,4,7.68,6.68,6.47,11.09-5.88-1.16-5.76-6.52-7.47-10.59" fill="none" stroke="#000" stroke-linecap="round" stroke-linejoin="round" stroke-width="2"/><path d="M105.4,165.85c-3.51,5.5-.26,16.14,5.5,18a4.75,4.75,0,0,0,6-4.5c.12-6.46-4.36-12-11-13.5" fill="none" stroke="#000" stroke-linecap="round" stroke-linejoin="round" stroke-width="2"/><path d="M160.4,186.35c-2.56.77-5,1.86-5,5s2,5.41,5,6.46c2.22.79,4.42,2.35,7.5,1,0-5.53-1.83-9.87-7-12.47" fill="none" stroke="#000" stroke-linecap="round" stroke-linejoin="round" stroke-width="2"/><path d="M36.4,183.85c-1.54.21-1.76,1.36-1.47,2.49,1.55,6.17,3,12.18,9.89,15.19,2.17.95,3.69.75,5-.28s.12-2.49-.28-3.94c-1.87-6.83-6.65-10.65-12.64-13.46" fill="none" stroke="#000" stroke-linecap="round" stroke-linejoin="round" stroke-width="2"/><path d="M371.2,32.65c2.21.32,4.3-.13,6.65,1.24a6.6,6.6,0,0,0,7.87-1.23c2.64-2.77,5.6-5.27,7.66-9.28a21.13,21.13,0,0,0-16.61.42c-3.45,1.58-4.11,5-1.57,8.35" fill="none" stroke="#000" stroke-linecap="round" stroke-linejoin="round" stroke-width="2"/><path d="M473.2,37.15c-3.85,1.4-7.27,3.32-9.54,7a7.56,7.56,0,0,0-.91,5c.19,1.76.14,4,2.46,4.46a4.8,4.8,0,0,0,5-1.46c3.51-4.21,5.53-8.87,4-14.49" fill="none" stroke="#000" stroke-linecap="round" stroke-linejoin="round" stroke-width="2"/><path d="M494.7-6.35c-6.05-1.72-9.58-1.94-16.5-1-.47,4.75,5,8.57,9.94,6.35,2.35-1.07,5.36-1.94,6.56-4.85" fill="none" stroke="#000" stroke-linecap="round" stroke-linejoin="round" stroke-width="2"/><path d="M439.7,32.15a25.44,25.44,0,0,0,9,1c4.86-.38,5.63-1.47,5-6.47-5.91-1.83-10.33.53-14,5" fill="none" stroke="#000" stroke-linecap="round" stroke-linejoin="round" stroke-width="2"/><path d="M422.7,38.15c-1.12,3.24-2.67,6.48-1.92,10,.43,2,.76,4.9,3.91,4.45,2.64-.38,3-2.57,3.06-4.93.14-3.87-1.88-6.69-4.05-9.5" fill="none" stroke="#000" stroke-linecap="round" stroke-linejoin="round" stroke-width="2"/><path d="M510.7,6.65c-3.84.43-7.18,1.94-7.9,6s1.49,7,4.91,9a57.46,57.46,0,0,0,7.52,4c3.32,1.29,5.94-1.25,5.49-4.94-.78-6.32-3.73-11.11-9.52-14" fill="none" stroke="#000" stroke-linecap="round" stroke-linejoin="round" stroke-width="2"/><path d="M500.2,73.65c-3.44-3.47-7-6.51-12.51-5.06a5.78,5.78,0,0,0-2.52,1c-1.93,1.62-4.77,2.87-2.9,6a6,6,0,0,0,6.93,3c3.77-.89,7.9-.9,10.5-4.5" fill="none" stroke="#000" stroke-linecap="round" stroke-linejoin="round" stroke-width="2"/><path d="M437.2,4.15c-2.15-1.45-2.85-4-3.86-6.07s-2.29-3.71-4.18-4.3a5.47,5.47,0,0,0-5.51.81c-2.12,1.8-1.79,4.13-1.34,6,1.33,5.59,6.68,7.49,13.38,5,1-.36,1.68-1.28,2.51.05" fill="none" stroke="#000" stroke-linecap="round" stroke-linejoin="round" stroke-width="2"/><path d="M359.7,21.15c4.08-3.81,5.13-8.67,3-14-6.78,2.1-7.65,5.84-3.46,15.08-.92.77-1.85,1.39-3,.42" fill="none" stroke="#000" stroke-linecap="round" stroke-linejoin="round" stroke-width="2"/><path d="M383.7,45.15c.49,4.19-1.17,7.49-3.93,10.55-1.4,1.55-2.69,2.76-4.52,1.38-1.64-1.24-2.05-2.74-.67-5a21.2,21.2,0,0,1,8.12-7.43" fill="none" stroke="#000" stroke-linecap="round" stroke-linejoin="round" stroke-width="2"/><path d="M104.8,112.5c2.21.32,4.3-.13,6.65,1.24a6.58,6.58,0,0,0,7.86-1.23c2.65-2.77,5.61-5.27,7.67-9.28a21.13,21.13,0,0,0-16.61.42c-3.45,1.58-4.11,5-1.57,8.35" fill="none" stroke="#000" stroke-linecap="round" stroke-linejoin="round" stroke-width="2"/><path d="M439.8,70.5c3.19-1.16,3.62-3.87,2.91-6.48a35.61,35.61,0,0,0-6.42-12c-.62-.81-1.2-1-2.53-.67-1.79.5-1,1.58-.9,2.15.69,6.21-.54,13.18,6.44,17" fill="none" stroke="#000" stroke-linecap="round" stroke-linejoin="round" stroke-width="2"/><path d="M206.8,117c-3.86,1.4-7.28,3.32-9.54,7a7.5,7.5,0,0,0-.91,5c.19,1.77.14,3.95,2.46,4.47a4.83,4.83,0,0,0,5-1.47c3.51-4.21,5.53-8.87,4-14.49" fill="none" stroke="#000" stroke-linecap="round" stroke-linejoin="round" stroke-width="2"/><path d="M267.8,137c3.31,4.37,9.31,5.53,14.44,2.4,1.29-.79,3.1-1.52,3.58-3.38-7.64-7.14-14.41-7-18,.48" fill="none" stroke="#000" stroke-linecap="round" stroke-linejoin="round" stroke-width="2"/><path d="M369.3,129c2.33-6-.87-14.13-6.5-16.5-2.65-1.12-5,.26-4.39,3,1.09,4.51,2.08,9.14,5.83,12.6,2,1.83,5.16-.39,6.56,2.43" fill="none" stroke="#000" stroke-linecap="round" stroke-linejoin="round" stroke-width="2"/><path d="M228.3,73.5c-6.06-1.72-9.59-1.93-16.5-1-.47,4.76,5,8.57,9.93,6.35,2.36-1.06,5.36-1.94,6.57-4.85" fill="none" stroke="#000" stroke-linecap="round" stroke-linejoin="round" stroke-width="2"/><path d="M386.3,33.5c-.05,1.69-.32,3.34.47,5,2.36,5,3.26,10.1,0,15.37-4.09-3.45-4.64-9.16-2-15.89" fill="none" stroke="#000" stroke-linecap="round" stroke-linejoin="round" stroke-width="2"/><path d="M368.8,26.5c-5.57-2.45-11.65-1.78-15,1.47a4.55,4.55,0,0,0-1.41,4.52c.55,2.34,2.68,2.17,4.44,2,5.26-.58,9-3.92,12.5-7.46" fill="none" stroke="#000" stroke-linecap="round" stroke-linejoin="round" stroke-width="2"/><path d="M321.8,71c-2.14,3.1-4.17,6.31-4.92,10a6.4,6.4,0,0,0,1.42,6c2.36,2.46,4.86,1.88,6-1.51,1.59-4.77.68-9.42-1-14" fill="none" stroke="#000" stroke-linecap="round" stroke-linejoin="round" stroke-width="2"/><path d="M241.8,29.5c3.73,2.71,8,3.65,12.5,4,1.67.14,3.17-.13,3.45-2,.25-1.64.15-3-1.9-4.08A13.5,13.5,0,0,0,241.3,29" fill="none" stroke="#000" stroke-linecap="round" stroke-linejoin="round" stroke-width="2"/><path d="M311.3,52.5c-.74-3-1.55-6-3.53-8.48a4.77,4.77,0,0,0-7.46-.51c-2.36,2.28-2.24,4.59,0,7,4,4.33,7,5.06,11,2.48" fill="none" stroke="#000" stroke-linecap="round" stroke-linejoin="round" stroke-width="2"/><path d="M173.3,112a25.16,25.16,0,0,0,9,1c4.85-.38,5.62-1.46,5-6.47-5.91-1.83-10.33.53-14,5" fill="none" stroke="#000" stroke-linecap="round" stroke-linejoin="round" stroke-width="2"/><path d="M403.3,80a27.38,27.38,0,0,0,9,1c4.69-.25,5.62-1.49,5-6.49-5.89-1.75-10.28.68-14,5" fill="none" stroke="#000" stroke-linecap="round" stroke-linejoin="round" stroke-width="2"/><path d="M331.3,120.5c2.52,3.8,4.34,7.7,3.08,12.52-.43,1.69-.11,3.42-2.58,3.5s-3.14-1.7-3.46-3.53c-.61-3.53.55-6.8,2-10" fill="none" stroke="#000" stroke-linecap="round" stroke-linejoin="round" stroke-width="2"/><path d="M156.3,118c-1.12,3.24-2.67,6.48-1.92,10,.43,2,.76,4.9,3.91,4.45,2.63-.38,3-2.57,3.06-4.93.14-3.87-1.88-6.69-4-9.5" fill="none" stroke="#000" stroke-linecap="round" stroke-linejoin="round" stroke-width="2"/><path d="M277.3,1c3.48,2,5.06,4.89,6.33,8.89s-.49,4.2-2.92,5.28c-4.94-3.57-5-8.44-3.91-13.67" fill="none" stroke="#000" stroke-linecap="round" stroke-linejoin="round" stroke-width="2"/><path d="M143.8,66.5a14.8,14.8,0,0,0-10.51-5.94c-2.65-.33-5.36,0-6,3.44s1.21,5,4.48,5.53c4,.62,8.52.36,11.27-1.82s3.81-1,5.73-.21" fill="none" stroke="#000" stroke-linecap="round" stroke-linejoin="round" stroke-width="2"/><path d="M244.3,86.5c-3.84.43-7.18,1.94-7.9,6s1.49,7,4.91,9a56.21,56.21,0,0,0,7.52,4c3.32,1.3,5.94-1.25,5.48-4.94-.77-6.32-3.72-11.11-9.51-14" fill="none" stroke="#000" stroke-linecap="round" stroke-linejoin="round" stroke-width="2"/><path d="M233.8,153.5c-3.44-3.47-7-6.51-12.51-5.06a5.67,5.67,0,0,0-2.53,1c-1.93,1.61-4.77,2.86-2.89,6a6,6,0,0,0,6.93,3c3.76-.89,7.9-.9,10.5-4.5" fill="none" stroke="#000" stroke-linecap="round" stroke-linejoin="round" stroke-width="2"/><path d="M170.8,84c-2.16-1.45-2.85-4-3.86-6.07s-2.29-3.71-4.18-4.3a5.48,5.48,0,0,0-5.51.81c-2.12,1.8-1.79,4.14-1.34,6,1.33,5.6,6.68,7.49,13.37,5,1-.36,1.69-1.28,2.52,0" fill="none" stroke="#000" stroke-linecap="round" stroke-linejoin="round" stroke-width="2"/><path d="M281.8,63.5c2.63-.65,4.42-1.88,4.55-5,.21-5.19-5.48-11.53-11.41-12,1.21,6-1.44,13.14,6.36,16.53" fill="none" stroke="#000" stroke-linecap="round" stroke-linejoin="round" stroke-width="2"/><path d="M93.3,101c4.08-3.8,5.12-8.67,3-14-6.78,2.1-7.65,5.84-3.46,15.08-.93.77-1.85,1.39-3,.42" fill="none" stroke="#000" stroke-linecap="round" stroke-linejoin="round" stroke-width="2"/><path d="M342.8,40c-4.49-5-11.42-5.63-17.85-1.26,4.06,3.06,8.6,4.13,13.35,4.79,2.53.35,3.37-1.47,4.5-3" fill="none" stroke="#000" stroke-linecap="round" stroke-linejoin="round" stroke-width="2"/><path d="M179.8,59.5a41.29,41.29,0,0,0-15.5-2.59c-2.47,0-3.19,1.4-4,3.09,5.59,6.65,11,6.33,17-1" fill="none" stroke="#000" stroke-linecap="round" stroke-linejoin="round" stroke-width="2"/><path d="M117.3,125c.49,4.19-1.17,7.49-3.94,10.56-1.39,1.54-2.69,2.75-4.51,1.38-1.65-1.24-2-2.75-.67-5a21.12,21.12,0,0,1,8.12-7.43" fill="none" stroke="#000" stroke-linecap="round" stroke-linejoin="round" stroke-width="2"/><path d="M268.3,60.5c-1.89,4-4.48,8,0,12.56,4.37-5.08,2.15-9.83.48-14.56" fill="none" stroke="#000" stroke-linecap="round" stroke-linejoin="round" stroke-width="2"/><path d="M342.8,61.5c6.09,4,7.68,6.68,6.48,11.08-5.88-1.15-5.77-6.51-7.48-10.58" fill="none" stroke="#000" stroke-linecap="round" stroke-linejoin="round" stroke-width="2"/><path d="M371.8,86c-3.51,5.5-.26,16.14,5.5,18a4.75,4.75,0,0,0,6-4.5c.12-6.46-4.36-12-11-13.5" fill="none" stroke="#000" stroke-linecap="round" stroke-linejoin="round" stroke-width="2"/><path d="M426.8,106.5c-2.56.77-5,1.86-4.95,5s2,5.4,5,6.45c2.22.8,4.41,2.36,7.49,1,0-5.52-1.82-9.86-7-12.46" fill="none" stroke="#000" stroke-linecap="round" stroke-linejoin="round" stroke-width="2"/><path d="M302.8,104c-1.54.21-1.75,1.36-1.47,2.49,1.55,6.17,3.06,12.18,9.89,15.19,2.17.95,3.69.75,5-.28s.12-2.49-.28-3.94c-1.87-6.83-6.65-10.65-12.64-13.46" fill="none" stroke="#000" stroke-linecap="round" stroke-linejoin="round" stroke-width="2"/><path d="M1.4,57.15c3.3,4.37,9.31,5.53,14.44,2.4,1.29-.79,3.1-1.53,3.58-3.38-7.64-7.15-14.41-7-18,.48" fill="none" stroke="#000" stroke-linecap="round" stroke-linejoin="round" stroke-width="2"/><path d="M102.9,49.15c2.33-6-.88-14.13-6.5-16.5-2.66-1.12-5,.26-4.39,3,1.08,4.51,2.08,9.14,5.83,12.6,2,1.83,5.15-.39,6.56,2.43" fill="none" stroke="#000" stroke-linecap="round" stroke-linejoin="round" stroke-width="2"/><path d="M55.4-8.85c-2.14,3.1-4.17,6.3-4.93,10a6.44,6.44,0,0,0,1.42,6c2.36,2.45,4.86,1.88,6-1.51,1.59-4.77.67-9.42-1-14" fill="none" stroke="#000" stroke-linecap="round" stroke-linejoin="round" stroke-width="2"/><path d="M136.9.15a27.34,27.34,0,0,0,9,1c4.69-.24,5.62-1.49,5-6.48-5.89-1.76-10.28.68-14,5" fill="none" stroke="#000" stroke-linecap="round" stroke-linejoin="round" stroke-width="2"/><path d="M64.9,40.65c2.51,3.8,4.34,7.69,3.08,12.52-.44,1.69-.11,3.42-2.58,3.5S62.25,55,61.94,53.14c-.61-3.53.55-6.81,2-10" fill="none" stroke="#000" stroke-linecap="round" stroke-linejoin="round" stroke-width="2"/><path d="M105.4,6.15c-3.51,5.5-.26,16.14,5.5,18a4.75,4.75,0,0,0,6-4.5c.12-6.46-4.36-12-11-13.5" fill="none" stroke="#000" stroke-linecap="round" stroke-linejoin="round" stroke-width="2"/><path d="M160.4,26.65c-2.56.77-5,1.85-5,5s2,5.4,5,6.45c2.22.79,4.42,2.36,7.5,1,0-5.53-1.83-9.87-7-12.46" fill="none" stroke="#000" stroke-linecap="round" stroke-linejoin="round" stroke-width="2"/><path d="M36.4,24.15c-1.54.21-1.76,1.36-1.47,2.49,1.55,6.16,3,12.18,9.89,15.19,2.17,1,3.69.75,5-.28s.12-2.49-.28-3.94C47.67,30.78,42.89,27,36.9,24.15" fill="none" stroke="#000" stroke-linecap="round" stroke-linejoin="round" stroke-width="2"/></pattern></defs><rect x="1" y="1" width="1366" height="768" fill="url(#Sesames)" stroke-linecap="round" stroke-linejoin="round" stroke-width="2" stroke="#000"/></svg>